<svg width="51" height="37" viewBox="0 0 51 37" fill="none" xmlns="http://www.w3.org/2000/svg">
<path d="M0 23.1328C0 19.1797 0.882812 16.0312 2.64844 13.6875C4.42969 11.3438 6.85938 10.1719 9.9375 10.1719C12.4062 10.1719 14.4453 11.0938 16.0547 12.9375V0H22.8516V36H16.7344L16.4062 33.3047C14.7188 35.4141 12.5469 36.4688 9.89062 36.4688C6.90625 36.4688 4.50781 35.2969 2.69531 32.9531C0.898438 30.5938 0 27.3203 0 23.1328ZM6.77344 23.625C6.77344 26 7.1875 27.8203 8.01562 29.0859C8.84375 30.3516 10.0469 30.9844 11.625 30.9844C13.7188 30.9844 15.1953 30.1016 16.0547 28.3359V18.3281C15.2109 16.5625 13.75 15.6797 11.6719 15.6797C8.40625 15.6797 6.77344 18.3281 6.77344 23.625Z" fill="black"/>
<path d="M50.9531 23.5547C50.9531 27.6172 50.0859 30.7891 48.3516 33.0703C46.6172 35.3359 44.1953 36.4688 41.0859 36.4688C38.3359 36.4688 36.1406 35.4141 34.5 33.3047L34.1953 36H28.1016V0H34.875V12.9141C36.4375 11.0859 38.4922 10.1719 41.0391 10.1719C44.1328 10.1719 46.5547 11.3125 48.3047 13.5938C50.0703 15.8594 50.9531 19.0547 50.9531 23.1797V23.5547ZM44.1797 23.0625C44.1797 20.5 43.7734 18.6328 42.9609 17.4609C42.1484 16.2734 40.9375 15.6797 39.3281 15.6797C37.1719 15.6797 35.6875 16.5625 34.875 18.3281V28.3359C35.7031 30.1172 37.2031 31.0078 39.375 31.0078C41.5625 31.0078 43 29.9297 43.6875 27.7734C44.0156 26.7422 44.1797 25.1719 44.1797 23.0625Z" fill="black"/>
</svg>
